<?xml version="1.0" encoding="UTF-8"?>
<!DOCTYPE svg PUBLIC "-//W3C//DTD SVG 1.1//EN" "http://www.w3.org/Graphics/SVG/1.1/DTD/svg11.dtd">
<svg xmlns="http://www.w3.org/2000/svg" version="1.1" width="1024px" height="1024px" style="shape-rendering:geometricPrecision; text-rendering:geometricPrecision; image-rendering:optimizeQuality; fill-rule:evenodd; clip-rule:evenodd" xmlns:xlink="http://www.w3.org/1999/xlink">
<g><path style="opacity:0.984" fill="#63c7f9" d="M 417.5,248.5 C 604.833,248.5 792.167,248.5 979.5,248.5C 886.732,411.622 793.065,574.288 698.5,736.5C 603.935,574.288 510.268,411.622 417.5,248.5 Z M 669.5,299.5 C 678.577,300.795 685.41,305.462 690,313.5C 701.31,336.361 701.31,359.028 690,381.5C 678.839,398.181 665.839,399.848 651,386.5C 639.733,369.396 636.4,350.729 641,330.5C 643.477,320.038 648.644,311.205 656.5,304C 660.614,301.461 664.947,299.961 669.5,299.5 Z M 760.5,321.5 C 771.549,321.47 779.049,326.804 783,337.5C 788.536,364.92 781.036,388.087 760.5,407C 740.172,419.475 727.005,414.309 721,391.5C 718.203,363.604 728.036,341.438 750.5,325C 753.98,323.897 757.313,322.731 760.5,321.5 Z M 582.5,348.5 C 592.272,348.035 600.939,350.869 608.5,357C 626.464,372.423 634.964,391.923 634,415.5C 632.219,432.138 623.053,439.305 606.5,437C 597.578,433.399 589.745,428.232 583,421.5C 573.575,409.403 567.908,395.736 566,380.5C 564.049,369.211 567.216,359.711 575.5,352C 577.925,350.787 580.259,349.621 582.5,348.5 Z M 812.5,396.5 C 835.829,394.996 844.996,405.663 840,428.5C 829.863,454.321 811.196,469.321 784,473.5C 765.702,473.529 757.535,464.362 759.5,446C 768.421,419.905 786.088,403.405 812.5,396.5 Z M 685.5,419.5 C 696.916,418.511 707.25,421.344 716.5,428C 740.646,447.958 753.646,473.624 755.5,505C 754.946,515.663 751.779,525.496 746,534.5C 735.516,544.04 723.683,546.206 710.5,541C 704.83,538.167 699.497,534.834 694.5,531C 689.291,525.959 684.291,520.792 679.5,515.5C 667.567,522.635 654.9,526.635 641.5,527.5C 618.625,525.786 608.458,513.452 611,490.5C 614.951,472.764 623.451,457.597 636.5,445C 650.496,431.847 666.829,423.347 685.5,419.5 Z"/></g>
<g><path style="opacity:0.984" fill="#63c7f9" d="M 321.5,292.5 C 322.376,292.369 323.043,292.702 323.5,293.5C 416.081,454.33 508.914,614.997 602,775.5C 603.009,777.025 603.509,778.692 603.5,780.5C 416.167,780.5 228.833,780.5 41.5,780.5C 41.4914,778.692 41.9914,777.025 43,775.5C 136.362,614.772 229.196,453.772 321.5,292.5 Z M 311.5,479.5 C 321.275,478.693 328.775,482.36 334,490.5C 344.394,513.095 343.728,535.429 332,557.5C 324.68,571.246 313.514,576.413 298.5,573C 289.085,566.362 283.585,557.196 282,545.5C 278.466,522.782 284.3,502.948 299.5,486C 303.157,483.008 307.157,480.841 311.5,479.5 Z M 399.5,514.5 C 418.074,513.741 427.074,522.741 426.5,541.5C 424.858,568.594 412.191,588.427 388.5,601C 367.82,606.02 357.154,597.687 356.5,576C 358.293,553.41 367.96,535.077 385.5,521C 390.147,518.506 394.814,516.339 399.5,514.5 Z M 221.5,516.5 C 230.983,515.273 239.317,517.773 246.5,524C 264.456,541.868 271.623,563.368 268,588.5C 260.749,609.864 247.582,614.364 228.5,602C 209.233,583.866 201.733,561.7 206,535.5C 208.13,526.55 213.297,520.217 221.5,516.5 Z M 442.5,595.5 C 450.229,595.176 457.563,596.676 464.5,600C 472.069,606.496 474.569,614.662 472,624.5C 463.546,645.511 448.38,659.344 426.5,666C 415.022,670.023 404.022,669.023 393.5,663C 386.363,655.401 384.529,646.567 388,636.5C 395.6,618.902 408.433,606.736 426.5,600C 431.874,598.16 437.207,596.66 442.5,595.5 Z M 314.5,600.5 C 325.283,600.372 334.95,603.539 343.5,610C 369.079,634.445 379.246,664.278 374,699.5C 367.811,726.341 351.978,734.841 326.5,725C 314.913,716.913 305.58,706.746 298.5,694.5C 279.81,703.472 261.143,703.638 242.5,695C 233.938,686.979 230.771,677.145 233,665.5C 237.312,648.84 246.145,635.007 259.5,624C 275.557,610.633 293.89,602.8 314.5,600.5 Z"/></g>
</svg>
